<svg width="102" height="20" viewBox="0 0 102 20" fill="none" xmlns="http://www.w3.org/2000/svg">
<g clip-path="url(#clip0_1477_1733)">
<path d="M2.46904 19.1049C1.6081 19.1049 0.910713 18.4288 0.910713 17.5956V4.73018C0.914121 3.71602 1.30257 2.79291 2.19872 2.03827C4.12618 0.41743 7.4484 0.525562 9.21344 2.30689C9.81201 2.91015 10.2845 3.60106 10.7331 4.28513C11.9632 6.15979 13.1479 8.05494 14.3598 9.93757C14.5642 10.254 14.7846 10.5716 15.0583 10.8527C15.7466 11.5607 16.904 11.5994 17.5548 10.8709C18.1704 10.1834 18.6565 9.41968 19.1506 8.66845C20.2012 7.07152 21.2109 5.45637 22.2582 3.8583C22.5603 3.39731 22.8976 2.94544 23.2781 2.52202C24.4571 1.21533 26.4436 0.640523 28.3552 1.02411C30.1872 1.39175 31.515 2.64039 31.7569 4.24871C31.8171 4.64595 31.8319 5.05002 31.8341 5.45068C31.8478 7.96502 31.8478 10.4794 31.8637 12.9937C31.8682 13.8189 32.176 14.5656 32.8052 15.2406C34.5385 17.1016 38.2503 16.8557 39.9313 15.689C40.5287 15.2747 41.0864 14.7739 41.4691 14.2287C43.8623 10.8208 46.2066 7.39022 48.5554 3.96301C49.6833 2.31713 51.3416 1.25403 53.7256 0.964918C56.5276 0.624588 59.2116 1.5807 60.5927 3.53049C62.4032 6.08809 64.1148 8.69008 65.8719 11.2716C66.5591 12.2812 67.2451 13.2897 67.9436 14.2936C68.8863 15.6515 70.3663 16.3868 72.2983 16.5427C74.111 16.6884 75.8942 16.6156 77.4742 15.7824C77.9398 15.5365 78.3726 15.2394 78.7701 14.9264C80.7441 13.3705 82.6954 11.7963 84.6717 10.2403C84.9705 10.0059 85.0386 9.87725 84.6979 9.60863L74.6415 1.21874C74.5233 1.11858 74.596 0.930771 74.7528 0.930771H77.9966C78.376 0.930771 78.7417 1.06167 79.0291 1.30183L87.007 7.82047C87.0921 7.88876 87.1819 7.95364 87.2818 8.02649C87.3488 8.07543 87.442 8.07316 87.5067 8.02307C87.969 7.66226 88.4153 7.31737 88.8549 6.96794L96.416 1.25972C96.6954 1.04687 97.0406 0.930771 97.3973 0.930771H100.745C100.752 0.930771 100.762 0.930771 100.77 0.93191C100.916 0.948983 100.964 1.13451 100.849 1.22557C97.3132 4.01765 93.4118 7.02713 89.9101 9.79302C89.8249 9.86018 89.8237 9.98538 89.9089 10.0537C93.3277 12.7888 97.6131 16.0795 101.027 18.8135C101.15 18.9114 101.078 19.1049 100.918 19.1049H97.4745C97.0588 19.114 96.7692 19.007 96.483 18.7782C93.8456 16.6713 90.7233 14.3835 88.0826 12.28C87.9099 12.1423 87.7611 11.9841 87.5908 11.8134C87.526 11.7485 87.4215 11.7405 87.3466 11.794C87.1739 11.917 87.0513 12.0023 86.9354 12.0922C84.8058 13.737 82.7182 15.4159 80.5408 17.0196C77.1493 19.5146 71.334 19.8003 67.6313 17.7276C66.3103 16.9878 65.3756 15.9998 64.7793 14.8468C64.3465 14.0102 63.7252 13.795 62.611 13.8144C59.4841 13.869 53.0396 13.8702 50.6737 13.8667C50.4363 13.8667 50.3114 13.5958 50.467 13.424L52.006 11.72C52.1366 11.5459 52.3445 11.4435 52.566 11.4435H62.0692C62.2044 11.4435 62.2862 11.3 62.2146 11.1896C62.034 10.9108 61.8796 10.6695 61.7183 10.4293C60.5189 8.64227 59.324 6.85297 58.1132 5.07051C57.3443 3.93911 56.1755 3.31764 54.498 3.36658C52.9385 3.41211 51.9776 4.12123 51.2859 5.1388C50.2523 6.65948 49.2267 8.18243 48.1818 9.69855C46.8052 11.6984 45.4615 13.7131 44.0168 15.6822C42.1007 18.2956 38.1685 19.6011 34.5578 18.8988C31.0936 18.225 28.772 15.9725 28.7095 13.1599C28.6664 11.226 28.6959 9.2922 28.6925 7.35721C28.6914 6.58321 28.7129 5.80922 28.6732 5.03636C28.6561 4.70172 28.5755 4.35115 28.4142 4.04383C28.0065 3.26983 26.8377 3.0843 26.0983 3.69439C25.7031 4.02106 25.4032 4.43424 25.1363 4.83945C23.6949 7.03054 22.2843 9.23301 20.8475 11.4252C20.3307 12.214 19.6617 12.914 18.6679 13.375C16.6461 14.3118 13.9736 13.9373 12.6652 12.3996C11.6725 11.2329 10.899 9.94782 10.0596 8.7026C9.10554 7.2855 8.18781 5.85247 7.24964 4.42855C7.14628 4.27147 7.01453 4.12464 6.88845 3.97667C6.48183 3.49975 5.92756 3.26642 5.19383 3.38593C4.58504 3.48496 4.15003 3.92659 4.05462 4.54123C4.01373 4.8053 4.02395 5.0762 4.02395 5.34368V17.5979C4.02395 18.431 3.32657 19.1071 2.46563 19.1071L2.46904 19.1049Z" fill="white"/>
</g>
<defs>
<clipPath id="clip0_1477_1733">
<rect width="102" height="20" fill="white"/>
</clipPath>
</defs>
</svg>
