<svg width="16" height="16" viewBox="0 0 16 16" fill="none" xmlns="http://www.w3.org/2000/svg">
<path d="M12.7403 7.40743C13.0676 7.40743 13.3329 7.67273 13.3329 7.99999C13.3329 8.32725 13.0676 8.59255 12.7403 8.59255H3.25937C2.93211 8.59255 2.66681 8.32725 2.66681 7.99999C2.66681 7.67273 2.93211 7.40743 3.25937 7.40743H12.7403Z" fill="#111113"/>
<path d="M7.58057 2.84021C7.81198 2.6088 8.18774 2.6088 8.41915 2.84021L13.1596 7.5807C13.391 7.81211 13.391 8.18787 13.1596 8.41928L8.41915 13.1598C8.18774 13.3912 7.81198 13.3912 7.58057 13.1598C7.34916 12.9284 7.34916 12.5526 7.58057 12.3212L11.9018 7.99999L7.58057 3.67879C7.34916 3.44738 7.34916 3.07162 7.58057 2.84021Z" fill="#111113"/>
</svg>
