<svg width="64" height="20" viewBox="0 0 64 20" fill="none" xmlns="http://www.w3.org/2000/svg">
<path d="M42.552 0.477728L46.1285 15.907L50.4152 0.477728H53.2041L57.4907 15.907L61.0672 0.477728H63.8819L58.8981 19.4448H56.1996L51.8225 3.71853L47.4197 19.4448H44.7212L39.7632 0.477728H42.552Z" fill="white"/>
<path d="M21.2635 0.477728H35.0918V2.80181H23.7684V8.56036H34.2396V10.7553H23.7684V17.1853H35.2855V19.4448H21.2635V0.477728Z" fill="white"/>
<path d="M2.4152 13.3247C2.47545 14.4007 2.72938 15.2744 3.17698 15.9458C4.02914 17.2025 5.53118 17.8309 7.68311 17.8309C8.64717 17.8309 9.52516 17.6931 10.3171 17.4177C11.8492 16.884 12.6153 15.9286 12.6153 14.5513C12.6153 13.5184 12.2925 12.7824 11.647 12.3434C10.9928 11.9131 9.96846 11.5386 8.57401 11.2201L6.00461 10.6391C4.32611 10.2604 3.13824 9.84291 2.44102 9.3867C1.23594 8.59479 0.633402 7.41123 0.633402 5.83602C0.633402 4.1317 1.22303 2.73295 2.40228 1.63977C3.58154 0.546589 5.25143 0 7.41197 0C9.40035 0 11.0875 0.482031 12.4733 1.44609C13.8677 2.40155 14.565 3.93372 14.565 6.04261H12.1505C12.0214 5.0269 11.7459 4.2479 11.3242 3.70562C10.5409 2.71573 9.21098 2.22079 7.3345 2.22079C5.81954 2.22079 4.73067 2.53927 4.06788 3.17624C3.40508 3.81321 3.07369 4.55348 3.07369 5.39703C3.07369 6.32666 3.46103 7.00667 4.23573 7.43706C4.74358 7.7125 5.89271 8.05681 7.68311 8.46998L10.3429 9.07682C11.6254 9.36949 12.6153 9.76974 13.3125 10.2776C14.5176 11.1642 15.1202 12.451 15.1202 14.1382C15.1202 16.2384 14.3541 17.7405 12.8219 18.6443C11.2983 19.5481 9.52516 20 7.50235 20C5.14384 20 3.29749 19.3975 1.96329 18.1924C0.629098 16.9959 -0.0250876 15.3734 0.000735468 13.3247H2.4152Z" fill="white"/>
</svg>
