<svg width="101" height="24" viewBox="0 0 101 24" fill="none" xmlns="http://www.w3.org/2000/svg">
<path d="M100.11 13.114C100.11 14.3848 100.038 15.6022 100.126 16.808C100.259 18.6026 100.493 20.3902 100.71 22.1778C100.755 22.5495 100.912 22.9079 101 23.2105C100.043 23.2105 99.0787 23.181 98.117 23.219C97.1785 23.256 96.2428 23.362 95.3008 23.4382C95.416 22.7468 95.5456 21.9684 95.6753 21.1901C95.1365 22.0545 94.6168 22.866 93.7786 23.4726C92.5832 24.3377 90.5879 24.0431 89.577 23.2768C88.4026 22.3864 87.8795 21.1162 87.712 19.7575C87.5089 18.1105 87.3727 16.427 87.4836 14.7775C87.6276 12.6361 88.1412 10.5532 89.8666 9.01149C91.2464 7.77865 93.2006 7.46628 94.7872 8.73229C95.1359 9.0106 95.3865 9.40998 95.7524 9.83492C95.6495 7.514 95.6253 5.26431 95.0742 3.13231C96.9456 3.21539 98.852 3.30002 100.753 3.38444C100.072 6.50764 100.102 9.7822 100.11 13.114ZM95.6121 13.8886C95.6121 13.6931 95.6213 13.4971 95.6104 13.3022C95.5714 12.6044 95.1709 11.9466 94.7178 11.8234C93.9605 11.6174 93.3294 11.9771 93.0268 12.8385C92.4749 14.4093 92.5567 16.0225 92.8057 17.6275C92.9143 18.3273 93.4945 18.8766 93.9802 18.8627C94.8361 18.8382 95.191 18.6063 95.3428 17.6884C95.5429 16.4779 95.5322 15.2331 95.6121 13.8886Z" fill="white"/>
<path d="M5.96423 22.5352C4.54312 22.5485 3.16964 22.5515 1.80177 22.6399C1.21005 22.6781 0.629912 22.8926 0.0989586 23.0146C1.58819 16.6161 1.91139 10.1758 6.10352e-05 3.74591C0.43667 3.80848 0.964168 3.94505 1.49229 3.94746C2.70783 3.95302 3.92668 3.93552 5.13869 3.85043C7.04934 3.7163 8.9405 3.4753 10.6876 4.62547C12.3537 5.72226 13.2241 7.26422 13.5972 9.15609C13.8905 10.6432 13.9744 12.1173 13.4799 13.5824C12.8255 15.5215 11.5521 16.8896 9.51553 17.2674C8.56258 17.4441 7.5201 17.1538 6.51938 17.0624C6.32354 17.0445 6.13317 16.9678 5.92378 16.914C6.24404 19.0581 6.92631 21.0586 8.06157 22.8945C7.34578 22.7773 6.67996 22.6683 5.96423 22.5352ZM9.41636 9.02739C9.38974 8.97854 9.3514 8.93258 9.33826 8.88039C9.14246 8.10251 8.68127 7.6405 7.56801 7.56337C6.83596 7.51265 6.33873 7.93466 6.1319 8.60662C5.92799 9.26911 5.74595 9.95181 5.67512 10.6379C5.5631 11.723 5.55188 12.8183 5.49395 13.9914C6.77066 13.4751 7.77417 12.8227 8.45977 11.788C8.99264 10.9838 9.55959 10.1711 9.41636 9.02739Z" fill="white"/>
<path d="M69.2432 17.3812C67.8633 17.8071 66.5828 17.3956 65.267 17.1368C65.4776 19.2847 66.2884 21.2498 67.441 23.2356C66.0235 22.6308 64.6848 22.7497 63.3597 22.7411C62.0251 22.7325 60.6926 22.7407 59.416 23.2509C60.863 16.8455 61.2278 10.4145 59.3253 3.98932C59.8665 4.04986 60.5196 4.16911 61.1753 4.18529C62.1175 4.20853 63.0659 4.20595 64.0039 4.12594C65.6101 3.98895 67.2443 3.67547 68.7943 4.23715C70.615 4.89693 71.8595 6.21051 72.5437 8.04448C73.0588 9.42506 73.2294 10.8498 73.1103 12.2901C72.9162 14.6367 71.4442 16.7586 69.2432 17.3812ZM64.9628 10.1688C64.9628 11.4834 64.9628 12.7981 64.9628 14.1036C65.1013 14.0497 65.3368 13.9737 65.5585 13.8691C66.8993 13.2366 67.761 12.1357 68.4412 10.8833C68.8796 10.0762 68.8699 9.23866 68.3536 8.45298C67.814 7.63187 66.3783 7.49357 65.7842 8.28591C65.4041 8.79273 65.2567 9.47118 64.9628 10.1688Z" fill="white"/>
<path d="M29.4246 21.5244C28.9621 22.027 28.5837 22.5758 28.0727 22.9429C26.915 23.7745 25.1358 23.5925 23.9197 22.7141C22.5452 21.7212 22.0345 20.2585 21.7783 18.7029C21.6035 17.6418 21.5111 16.55 21.5419 15.4764C21.6081 13.1658 22.0436 10.9501 23.544 9.05552C24.2718 8.13646 26.0265 7.52688 27.3591 7.84581C28.4346 8.10323 29.2718 8.73508 30.1142 9.6527C30.0062 8.96986 29.9196 8.42262 29.8226 7.80867C31.4966 8.33136 33.1705 8.2329 34.9275 8.03973C34.0668 13.0609 34.0113 18.004 35.1631 22.9864C33.4449 22.707 31.8034 22.6147 30.1758 23.1779C30.2709 22.0775 30.3653 20.9857 30.4596 19.8939C30.4317 19.8887 30.4038 19.8835 30.3758 19.8783C30.0667 20.4149 29.7576 20.9514 29.4246 21.5244ZM27.5039 11.7024C27.4618 11.7436 27.4033 11.7771 27.3798 11.8269C26.4918 13.7038 26.5116 15.6373 27.0487 17.5913C27.1934 18.118 27.541 18.4835 28.1514 18.4468C28.7816 18.4089 29.3065 17.9832 29.4433 17.3351C29.7891 15.6968 29.8202 14.0386 29.5587 12.3904C29.39 11.3271 28.4764 11.012 27.5039 11.7024Z" fill="white"/>
<path d="M44.839 21.0012C44.9179 20.3197 45.0512 19.6939 45.0656 19.0654C45.1274 16.3759 45.1849 13.6856 45.1771 10.9957C45.1744 10.0483 44.9808 9.10141 44.888 8.27556C46.7281 8.33416 48.6046 8.39391 50.5049 8.45442C50.4444 8.67249 50.3566 8.98817 50.305 9.17396C51.1134 8.70132 51.9443 8.11777 52.8548 7.70868C53.9198 7.23018 55.0091 7.40119 55.9615 8.07455C56.7152 8.60747 57.0659 9.44241 57.2468 10.296C57.448 11.2461 57.5659 12.2242 57.6075 13.1948C57.6916 15.1592 57.6502 17.1295 57.7561 19.0923C57.8297 20.455 58.0627 21.8093 58.2243 23.1664C56.0661 22.7798 53.8534 22.9384 51.712 23.4113C52.0214 21.7816 52.4773 20.146 52.6097 18.4851C52.7677 16.5025 52.6578 14.4981 52.6382 12.5034C52.6357 12.2539 52.4985 11.9954 52.3844 11.7599C52.2013 11.3824 51.9428 11.2657 51.504 11.4536C50.4306 11.9132 50.0907 12.836 49.9373 13.8467C49.6272 15.8903 49.8733 17.9138 50.2804 19.9221C50.4829 20.9211 50.7052 21.9161 50.9128 22.886C49.9104 22.8398 48.8356 22.73 47.7645 22.7581C46.7156 22.7855 45.6705 22.9534 44.6182 23.0601C44.6846 22.4573 44.7616 21.7564 44.839 21.0012Z" fill="white"/>
<path d="M83.4488 8.73758C84.7032 9.59908 85.3253 10.8611 85.7622 12.1783C86.2724 13.7166 86.381 15.3137 86.1662 16.9503C85.9628 18.4993 85.5915 19.9567 84.7336 21.2801C83.7165 22.8489 82.3033 23.7246 80.4059 23.7987C79.0354 23.8523 77.7205 23.7427 76.5387 22.9173C75.364 22.0968 74.6266 20.9817 74.2042 19.6644C73.7577 18.2715 73.5578 16.8147 73.617 15.3613C73.7098 13.087 74.2836 10.9483 75.9884 9.28245C77.9047 7.41006 81.2052 7.12444 83.4488 8.73758ZM78.3836 16.5118C78.6023 17.2487 78.7906 17.9964 79.0492 18.7193C79.2599 19.3085 80.1281 19.6002 80.6297 18.9639C80.9696 18.5327 81.2218 18.0035 81.3955 17.4797C81.721 16.4986 81.6524 15.468 81.5099 14.4676C81.4047 13.7289 81.2294 12.9689 80.9132 12.2983C80.4558 11.3286 79.7301 11.3449 79.1375 12.2533C79.0468 12.3923 78.9815 12.549 78.9147 12.7019C78.3962 13.8889 78.3441 15.1479 78.3836 16.5118Z" fill="white"/>
<path d="M19.7507 18.0073C19.8303 18.6503 19.8947 19.24 19.9873 19.8253C20.1502 20.8551 20.3304 21.8822 20.5056 22.9244C18.5312 22.6483 16.502 22.5998 14.5479 23.081C15.709 16.5401 15.547 9.99736 14.7935 3.40312C16.4549 3.68345 18.2411 3.93537 19.9334 3.49562C19.8318 5.78679 19.6979 8.0667 19.6396 10.3485C19.5905 12.2652 19.62 14.1841 19.6349 16.1019C19.6397 16.7189 19.7087 17.3353 19.7507 18.0073Z" fill="white"/>
<path d="M42.2349 16.2754C42.5 18.5791 42.7651 20.8253 43.0243 23.0221C41.0321 22.5542 38.9419 22.6286 36.8724 23.1073C38.1357 18.1765 37.9341 13.1515 37.1094 8.09989C38.9061 8.58125 40.7714 8.50884 42.7541 8.30944C42.1987 10.9386 42.2031 13.5776 42.2349 16.2754Z" fill="white"/>
<path d="M37.141 4.75525C36.604 3.49198 36.62 2.34896 37.4495 1.22479C38.4354 -0.111485 40.4112 -0.373814 41.7966 0.533889C42.9835 1.31147 43.4147 2.65696 43.149 3.8359C42.8632 5.10376 42.0689 6.01991 40.6905 6.3084C39.1436 6.63216 38.0081 6.04442 37.141 4.75525ZM37.8921 3.13317C38.2038 3.09178 38.3128 2.9416 38.3509 2.60645C38.394 2.22783 38.5947 1.86538 38.738 1.5002C38.7938 1.35814 38.8799 1.22779 38.9712 1.05635C38.0787 1.04231 37.6162 1.91808 37.8921 3.13317ZM38.6196 4.54653C38.5522 4.27533 38.4847 4.00413 38.4204 3.74556C38.0725 3.68488 37.8056 3.73561 37.867 4.12197C37.9234 4.47619 38.0707 4.80213 38.6196 4.54653Z" fill="white"/>
</svg>
