<svg width="111" height="20" viewBox="0 0 111 20" fill="none" xmlns="http://www.w3.org/2000/svg">
<path d="M65.2154 12.2607C63.8661 12.2606 62.595 12.2606 61.2473 12.2606C61.4625 13.1663 61.9954 13.7396 62.5647 14.2501C64.8596 16.3083 68.1386 16.4863 70.6363 14.6794C71.142 14.3136 71.4638 14.3493 71.9078 14.7582C72.688 15.4766 73.5279 16.1301 74.2786 16.7572C74.2742 17.1344 74.0797 17.2467 73.928 17.3804C68.8106 21.8942 60.4715 20.287 57.4176 14.2002C55.3786 10.136 56.525 5.22052 60.1886 2.31926C64.865 -1.38406 71.7824 -0.546369 75.4081 4.17441C76.9958 6.24169 77.5404 8.60701 77.2902 11.1693C77.187 12.2264 77.1173 12.2605 76.0171 12.2608C72.4426 12.262 68.8682 12.2609 65.2154 12.2607ZM67.6426 8.62938C69.1016 8.6294 70.5607 8.63847 72.0195 8.62609C72.8948 8.61866 72.9962 8.45284 72.6058 7.65341C71.6025 5.59897 69.9487 4.39621 67.6868 4.14616C65.2518 3.87696 63.2234 4.71722 61.7382 6.69584C61.3463 7.21794 60.9756 7.79625 60.9587 8.49815C61.0916 8.5512 61.1629 8.60425 61.2344 8.60463C63.3183 8.61601 65.4021 8.62213 67.6426 8.62938Z" fill="white"/>
<path d="M36.4548 15.3495C36.4549 16.4706 36.4385 17.5137 36.4624 18.5559C36.4738 19.0579 36.279 19.2697 35.7801 19.2626C34.9195 19.2502 34.0573 19.2336 33.1981 19.2721C32.5306 19.302 32.2175 19.0742 32.2894 18.3755C32.3146 18.1305 32.3657 17.8607 32.1636 17.5463C29.9695 19.4396 27.4359 19.8106 24.6983 19.1726C22.646 18.6944 20.938 17.6343 19.6104 16.0098C16.7356 12.4921 16.6731 7.66366 19.4679 4.09111C21.0102 2.11958 23.0469 0.968303 25.5367 0.567131C28.0256 0.166091 30.2203 0.792468 32.204 2.35344C32.4531 0.755775 32.4536 0.73121 34.0358 0.763815C34.8049 0.779666 35.7738 0.412119 36.2919 0.955136C36.7703 1.45663 36.4462 2.40151 36.4489 3.14906C36.4634 7.18976 36.4552 11.2305 36.4548 15.3495ZM21.9805 7.28233C21.3956 8.4009 21.2079 9.56972 21.3917 10.8312C21.7954 13.6012 24.3379 15.7295 27.1682 15.6098C30.0769 15.4868 32.5113 13.0837 32.5929 10.2548C32.6711 7.54356 31.107 5.31169 28.6039 4.56301C25.9965 3.78311 23.5054 4.77515 21.9805 7.28233Z" fill="white"/>
<path d="M90.8946 15.4418C93.1775 15.4778 92.9423 15.1078 92.9407 17.374C92.9392 19.4686 93.2056 19.262 91.0759 19.2652C86.8763 19.2715 82.6768 19.267 78.4772 19.2638C77.4715 19.263 77.411 19.2109 77.4239 18.1995C77.4362 17.2371 77.3799 16.2758 77.5141 15.3122C77.7835 13.3778 78.747 11.9174 80.3817 10.8741C82.0839 9.78768 83.9644 9.21533 85.9428 8.90871C86.3272 8.84914 86.7151 8.76505 87.0794 8.63184C87.8851 8.33713 88.4793 7.862 88.5366 6.90099C88.5957 5.91028 88.1547 5.23204 87.2993 4.83468C85.5565 4.02521 83.8088 4.13492 82.0825 4.91584C81.5556 5.15419 81.0747 5.4739 80.6602 5.87227C80.3445 6.1757 80.0886 6.1502 79.7878 5.87297C79.1552 5.29008 78.521 4.70839 77.87 4.1463C77.4678 3.79891 77.5308 3.52362 77.891 3.18624C80.0981 1.11878 82.7314 0.301199 85.7109 0.512703C87.434 0.635017 89.043 1.12232 90.4396 2.17457C92.8817 4.01464 93.4398 7.5589 91.614 9.98358C90.6101 11.3168 89.1239 11.9067 87.5381 12.265C86.446 12.5118 85.3527 12.7544 84.2661 13.0236C83.6 13.1886 82.9941 13.498 82.4882 13.9689C82.1017 14.3287 81.7837 14.7344 81.8516 15.4421C84.8438 15.4421 87.8302 15.4421 90.8946 15.4418Z" fill="white"/>
<path d="M106.693 19.2721C105.913 19.2702 105.209 19.2487 104.506 19.2732C103.919 19.2937 103.633 19.0911 103.677 18.4622C103.715 17.9178 103.648 17.3658 103.692 16.8223C103.742 16.2038 103.51 16.0034 102.893 16.0115C100.677 16.0405 98.4608 15.9904 96.2461 16.0354C94.958 16.0616 93.9005 15.7062 93.3345 14.4993C92.7546 13.2627 93.057 12.0888 93.8984 11.0743C95.4614 9.18995 97.0604 7.33544 98.6458 5.4697C99.6242 4.31832 100.616 3.17827 101.582 2.01661C102.688 0.686433 104.131 0.352897 105.74 0.658725C107.032 0.904555 107.831 2.06936 107.839 3.58496C107.852 6.24202 107.865 8.89949 107.828 11.5561C107.818 12.2983 108.036 12.6094 108.798 12.5386C109.315 12.4906 109.84 12.5378 110.361 12.5336C110.819 12.5299 111.013 12.7391 110.999 13.2042C110.977 13.9329 110.976 14.6633 110.999 15.392C111.014 15.8735 110.799 16.0429 110.343 16.0257C109.875 16.008 109.405 16.0237 108.936 16.0236C107.844 16.0235 107.844 16.0232 107.844 17.1508C107.845 17.4894 107.847 17.8281 107.846 18.1667C107.841 19.2534 107.84 19.2534 106.693 19.2721ZM100.84 12.5288C101.569 12.5295 102.297 12.5248 103.026 12.5333C103.414 12.5378 103.684 12.4481 103.683 11.9791C103.676 9.6988 103.68 7.41843 103.68 4.92816C101.479 7.51184 99.4096 9.9422 97.2071 12.5282C98.5093 12.5282 99.5964 12.5282 100.84 12.5288Z" fill="white"/>
<path d="M16.2191 3.78728C15.683 4.24863 15.1491 4.63725 14.71 5.11325C14.2543 5.60737 13.9202 5.56313 13.3937 5.18483C10.004 2.74898 5.21384 4.48154 4.2033 8.4811C3.58262 10.9377 4.51702 13.4419 6.58837 14.8731C8.63396 16.2866 11.2507 16.2735 13.3418 14.8394C14.346 14.1507 14.346 14.1508 15.1901 15.0275C15.6603 15.5158 16.1238 16.0106 16.6034 16.4895C16.9539 16.8395 16.9601 17.1302 16.5593 17.4573C13.316 20.1043 9.71126 20.7698 5.8894 19.0507C2.17627 17.3805 0.219083 14.3851 0.0120114 10.2674C-0.265533 4.74843 4.30091 -0.0946564 10.1709 0.00140517C12.4213 0.0382341 14.4568 0.800663 16.2238 2.23012C17.1633 2.99009 17.1712 2.99441 16.2191 3.78728Z" fill="white"/>
<path d="M44.2854 16.7575C44.2844 17.4354 44.2693 18.0356 44.287 18.6348C44.2999 19.0716 44.0958 19.2562 43.6816 19.2566C42.7162 19.2577 41.7508 19.2589 40.7853 19.2593C40.2463 19.2596 40.1579 18.91 40.1585 18.4717C40.1609 16.7766 40.1348 15.0812 40.158 13.3865C40.1958 10.6241 40.0068 7.85737 40.2559 5.09974C40.4769 2.65341 42.1831 0.885781 44.6424 0.799474C47.9523 0.683318 51.269 0.761406 54.5827 0.74757C55.0575 0.745588 55.2336 0.970946 55.2278 1.419C55.2181 2.17514 55.1934 2.93322 55.2345 3.68724C55.2715 4.36562 55.0159 4.60453 54.3321 4.59736C51.723 4.57 49.1133 4.58613 46.5039 4.58969C44.84 4.59196 44.3238 5.10918 44.2954 6.78909C44.2628 8.71741 44.2628 8.71712 46.1541 8.71771C48.6331 8.71848 51.1124 8.74321 53.5908 8.70578C54.2886 8.69524 54.4782 8.91847 54.4743 9.59929C54.46 12.1121 54.4828 12.1108 51.9815 12.1091C49.7113 12.1076 47.4408 12.1314 45.1711 12.097C44.4784 12.0865 44.2538 12.3259 44.2762 13.0028C44.3165 14.2271 44.2862 15.4537 44.2854 16.7575Z" fill="white"/>
</svg>
