<svg width="197" height="20" viewBox="0 0 197 20" fill="none" xmlns="http://www.w3.org/2000/svg">
<path d="M3.98066 17.3025C3.98064 18.2086 3.98064 18.9668 3.98064 19.7516C2.59187 19.7516 1.32874 19.7516 0 19.7516C0 13.2437 0 6.79923 0 0.143599C2.17334 0.143599 4.3577 0.103958 6.53686 0.192364C6.81833 0.20378 7.22057 0.842921 7.31712 1.25049C8.2722 5.2821 9.17252 9.32667 10.0952 13.366C10.1829 13.7503 10.3169 14.1241 10.5432 14.8858C11.7162 9.74132 12.8002 4.98703 13.8922 0.197908C16.2813 0.197908 18.5749 0.197908 20.9804 0.197908C20.9804 6.7176 20.9804 13.1956 20.9804 19.7449C19.6743 19.7449 18.4135 19.7449 16.9806 19.7449C16.9806 15.1389 16.9806 10.5656 16.9806 5.99228C16.8571 5.97442 16.7335 5.95657 16.6099 5.9387C16.0812 7.93166 15.5498 9.9239 15.0245 11.9178C14.4252 14.1926 13.7793 16.4571 13.2626 18.7506C13.072 19.5965 12.7055 19.8195 11.9103 19.7844C10.6835 19.7303 9.45254 19.7701 8.02759 19.7701C6.84228 15.2445 5.65269 10.7025 4.4631 6.16043C4.30229 6.1785 4.14148 6.19658 3.98067 6.21464C3.98067 9.86127 3.98067 13.5079 3.98066 17.3025Z" fill="white"/>
<path d="M88.5826 11.1819C88.5826 7.45053 88.5826 3.87313 88.5826 0.144399C90.2797 0.144399 91.861 0.0619219 93.4232 0.198426C93.8503 0.235747 94.3629 0.86086 94.5934 1.33449C96.5367 5.32766 98.4237 9.3483 100.624 13.3405C100.624 9.01207 100.624 4.68364 100.624 0.250752C102.101 0.250752 103.354 0.250752 104.729 0.250752C104.729 6.68402 104.729 13.1591 104.729 19.8132C103.168 19.8132 101.592 19.8801 100.028 19.7668C99.6306 19.7379 99.1286 19.2082 98.9218 18.7871C97.1865 15.2536 95.5111 11.6907 93.8108 8.13995C93.5808 7.65959 93.3125 7.19757 92.7457 6.78685C92.7457 11.0885 92.7457 15.3902 92.7457 19.7516C91.2871 19.7516 90.0244 19.7516 88.5826 19.7516C88.5826 16.937 88.5826 14.1364 88.5826 11.1819Z" fill="white"/>
<path d="M190.609 19.3767C187.279 19.6141 184.065 19.8034 180.727 20C180.727 13.2994 180.727 6.8165 180.727 0C183.907 0.163424 187.171 -0.0228225 190.284 0.573942C194.987 1.47532 197.755 6.62543 196.819 11.9145C196.179 15.5247 194.304 18.1299 190.609 19.3767ZM191.769 13.8051C193.052 10.8936 193.109 7.97835 191.2 5.37317C189.562 3.13672 187.045 3.76643 184.727 3.80714C184.727 7.97995 184.727 11.9991 184.727 16.1038C187.326 16.154 189.965 16.6828 191.769 13.8051Z" fill="white"/>
<path d="M171.079 3.74615C169.858 3.74615 168.791 3.74615 167.632 3.74615C167.632 5.2131 167.632 6.564 167.632 8.06756C170.77 8.06756 173.871 8.06756 177.043 8.06756C177.043 9.32575 177.043 10.4331 177.043 11.7082C173.922 11.7082 170.829 11.7082 167.639 11.7082C167.639 13.2272 167.639 14.5847 167.639 16.1012C171.001 16.1012 174.409 16.1012 177.909 16.1012C177.909 17.4083 177.909 18.5588 177.909 19.7605C173.1 19.7605 168.353 19.7605 163.516 19.7605C163.516 13.2699 163.516 6.83396 163.516 0.26833C168.208 0.26833 172.927 0.26833 177.722 0.26833C177.722 1.39646 177.722 2.49354 177.722 3.74616C175.508 3.74616 173.37 3.74616 171.079 3.74615Z" fill="white"/>
<path d="M30.766 14.8282C30.0608 14.8284 29.5022 14.8284 28.9096 14.8284C28.4121 16.2009 27.8987 17.4825 27.4902 18.7967C27.2578 19.5446 26.9243 19.8889 26.09 19.8301C24.9724 19.7513 23.8451 19.8106 22.5131 19.8106C23.1067 18.2429 23.6451 16.8211 24.1834 15.3992C25.9567 10.7153 27.7505 6.03896 29.4851 1.34074C29.8149 0.447401 30.2322 0.0359051 31.2379 0.119614C32.4548 0.220921 33.6866 0.143639 34.9661 0.143639C37.4513 6.68074 39.918 13.1692 42.4209 19.7526C40.8286 19.7526 39.3612 19.7526 37.8182 19.7526C37.3586 18.4723 36.8417 17.1911 36.4462 15.8734C36.1962 15.0404 35.7759 14.7553 34.9101 14.8064C33.5818 14.8847 32.2455 14.8275 30.766 14.8282ZM30.7232 9.84926C30.5858 10.3296 30.4484 10.8099 30.2855 11.3794C31.814 11.3794 33.2064 11.3794 34.7381 11.3794C33.9895 9.19443 33.2798 7.12294 32.4619 4.73533C31.8155 6.60866 31.2994 8.1046 30.7232 9.84926Z" fill="white"/>
<path d="M69.2581 1.41739C69.1432 0.427245 69.4546 0.0553063 70.3598 0.124752C71.2754 0.194996 72.2005 0.140237 73.3075 0.140237C73.3363 0.733271 73.3825 1.27126 73.3854 1.80946C73.4045 5.34932 73.3356 8.89181 73.4511 12.4283C73.549 15.4263 75.1344 16.6838 78.0736 16.3531C79.9257 16.1447 81.0694 15.2329 81.1918 13.3504C81.3943 10.2342 81.3559 7.10206 81.4057 3.97644C81.4252 2.75188 81.4089 1.52675 81.4089 0.222066C82.7797 0.222066 84.0338 0.222066 85.4891 0.222066C85.4891 2.11696 85.5172 3.99577 85.4824 5.87344C85.4322 8.58754 85.5242 11.3226 85.2129 14.009C84.8147 17.4445 82.7101 19.4319 79.2848 19.8498C77.8318 20.027 76.3061 20.0034 74.8615 19.7714C71.8724 19.2914 69.7171 17.0322 69.5152 13.8606C69.2551 9.77201 69.3282 5.66222 69.2581 1.41739Z" fill="white"/>
<path d="M51.3373 7.4722C52.3301 6.25877 53.2596 5.13486 54.3644 3.79891C50.8464 3.79891 47.6397 3.79891 44.3105 3.79891C44.3105 2.557 44.3105 1.41659 44.3105 0.207519C49.3701 0.207519 54.4249 0.207519 59.5718 0.207519C59.7926 1.73309 59.6627 2.99818 58.5515 4.28053C55.2656 8.0725 52.1395 12.0031 48.7713 16.0978C52.6718 16.0978 56.362 16.0978 60.1424 16.0978C60.1424 17.3857 60.1424 18.4905 60.1424 19.7066C54.6723 19.7066 49.1673 19.7066 43.6382 19.7066C43.3004 18.0655 43.5713 16.6961 44.7769 15.3627C47.0445 12.8545 49.1191 10.1718 51.3373 7.4722Z" fill="white"/>
<path d="M106.348 3.58512C106.251 2.4218 106.251 1.36077 106.251 0.219809C111.746 0.219809 117.144 0.219809 122.626 0.219809C122.626 1.38617 122.626 2.48371 122.626 3.73541C120.598 3.73541 118.627 3.73541 116.524 3.73541C116.524 9.13779 116.524 14.3893 116.524 19.7301C115.131 19.7301 113.872 19.7301 112.423 19.7301C112.423 14.471 112.423 9.1844 112.423 3.6874C110.306 3.6874 108.375 3.6874 106.348 3.58512Z" fill="white"/>
<path d="M135.686 14.2604C135.686 10.6905 135.686 7.27433 135.686 3.77063C133.606 3.77063 131.676 3.77063 129.633 3.77063C129.633 2.54909 129.633 1.41481 129.633 0.208402C135.024 0.208402 140.384 0.208402 145.853 0.208402C145.853 1.35204 145.853 2.49649 145.853 3.76978C143.807 3.76978 141.826 3.76978 139.749 3.76978C139.749 9.16167 139.749 14.4267 139.749 19.753C138.388 19.753 137.127 19.753 135.686 19.753C135.686 17.9607 135.686 16.1875 135.686 14.2604Z" fill="white"/>
<path d="M151.428 9.95024C151.428 12.0466 151.428 13.9891 151.428 16.0724C154.917 16.0724 158.326 16.0724 161.815 16.0724C161.815 17.3726 161.815 18.5317 161.815 19.7525C157.045 19.7525 152.295 19.7525 147.463 19.7525C147.463 13.2649 147.463 6.82186 147.463 0.26023C148.688 0.26023 149.943 0.26023 151.428 0.26023C151.428 3.38366 151.428 6.58999 151.428 9.95024Z" fill="white"/>
<path d="M124.043 15.7962C124.043 10.5302 124.043 5.41761 124.043 0.220448C125.454 0.220448 126.712 0.220448 128.077 0.220448C128.077 6.71787 128.077 13.1979 128.077 19.7492C126.77 19.7492 125.507 19.7492 124.043 19.7492C124.043 18.4747 124.043 17.2121 124.043 15.7962Z" fill="white"/>
<path d="M62.1223 15.7972C62.1223 10.5361 62.1223 5.42846 62.1223 0.232118C63.4816 0.232118 64.7303 0.232118 66.0741 0.232118C66.0741 6.72499 66.0741 13.1921 66.0741 19.7364C64.8055 19.7364 63.5503 19.7364 62.1223 19.7364C62.1223 18.473 62.1223 17.2119 62.1223 15.7972Z" fill="white"/>
</svg>
