<svg width="80" height="20" viewBox="0 0 80 20" fill="none" xmlns="http://www.w3.org/2000/svg">
<path d="M60.9635 0.582186C62.8713 0.118232 64.1375 0.530518 65.1727 2.22333C66.6953 4.71275 68.5202 7.01867 70.2184 9.40129C70.2949 9.50862 70.3911 9.6021 70.5572 9.79253C72.312 7.31377 74.0501 4.8619 75.7847 2.40791C77.2572 0.324644 77.2556 0.323312 80 0.503353V19.4932H77.4767V4.97403L77.2273 4.85658L70.5213 14.472L63.6536 4.61741V19.4799H60.9638L60.9635 0.582186Z" fill="#F6F6F6"/>
<path d="M44.8489 17.1053C47.878 18.0462 50.4689 17.3937 52.8122 15.361L54.3749 17.0794C52.1468 20.0104 45.5844 21.6233 40.7213 17.562C36.4204 13.9702 36.0017 7.53642 39.8307 3.3398C43.6677 -0.865603 50.5734 -1.06589 54.5305 2.9696L52.8002 4.66988C50.5603 2.75946 48.0705 1.97671 45.2208 2.81459C42.2764 3.68018 40.0665 6.44978 39.8807 9.43645C39.6684 12.8442 41.3522 15.4886 44.8489 17.1053Z" fill="#F8F8F8"/>
<path d="M23.5618 12.6151C20.0218 11.8135 17.9803 9.57627 17.9298 6.56005C17.8798 3.57525 19.8413 1.06931 22.8597 0.262056C25.4932 -0.442396 28.3525 0.569939 29.9534 2.77358C31.5548 4.97749 31.5468 7.69889 29.9042 10.0852C28.1699 12.6048 26.2666 15.0231 24.7189 17.6504C23.6222 19.5116 22.2539 19.909 20.206 19.404L24.9371 12.6902C24.4787 12.6644 24.0203 12.6393 23.5618 12.6151ZM28.2939 7.71487C28.769 5.85266 28.333 4.25333 26.7246 3.15204C25.3662 2.22174 23.876 2.23426 22.4534 3.08466C21.0148 3.94492 20.2967 5.72029 20.6723 7.33401C21.0353 8.89286 22.3745 10.0839 24.0366 10.326C25.7731 10.579 27.2232 9.73874 28.2939 7.71487ZM0.0287266 18.5126C0.297148 17.6904 0.391256 16.8304 0.863666 16.3134C3.38051 13.5596 6.00858 10.9069 8.56286 8.18601C9.67959 6.99683 9.81888 5.42919 9.04035 4.13774C8.33428 2.96641 6.81171 2.24304 5.48831 2.54294C3.76497 2.93365 2.87281 4.10365 2.63674 5.86172H0.0567974C0.0672241 3.68071 1.06471 2.0891 2.81426 0.999C4.8595 -0.275672 7.0411 -0.333731 9.14515 0.843198C12.5437 2.74349 13.2097 6.93345 10.5741 9.78721C8.35192 12.1933 6.0559 14.5322 3.62969 17.0714H12.1234V19.5641H7.65119C5.42388 19.5641 3.19577 19.5329 0.969536 19.5814C0.218545 19.5976 -0.103343 19.3901 0.0289958 18.5126" fill="#F9F9F9"/>
</svg>
