<svg width="101" height="20" viewBox="0 0 101 20" fill="none" xmlns="http://www.w3.org/2000/svg">
<path d="M73.6303 19.9993C73.2854 19.8456 72.9982 19.6859 72.6979 19.5566C71.4723 19.0291 70.5944 18.1895 70.377 16.8269C70.0587 14.8324 70.83 13.4321 72.6405 12.465C74.2713 11.594 76.0389 11.2152 77.8295 10.8931C78.0621 10.8512 78.2916 10.7919 78.5705 10.7301C78.6067 9.58483 78.363 8.52978 77.6787 7.6171C77.2147 6.99843 76.0178 6.87202 75.4897 7.42829C75.2739 7.65553 75.2144 8.14984 75.267 8.49463C75.5639 10.4408 73.7084 11.058 72.3604 10.4902C71.7829 10.247 71.3165 9.85004 71.2542 9.15607C71.1741 8.2658 71.3242 7.45537 72.1173 6.90132C73.2196 6.1312 74.4878 5.80573 75.7903 5.68486C77.1722 5.55661 78.5684 5.64089 79.852 6.23417C81.6044 7.04414 82.8732 8.30946 83.0038 10.3457C83.1172 12.1136 83.0912 13.8903 83.1311 15.6631C83.142 16.1491 83.0995 16.65 83.2025 17.1173C83.3813 17.9293 83.6545 18.0178 84.3559 17.6056C84.4155 17.5706 84.4724 17.5311 84.5747 17.4652C84.7644 17.7558 84.9411 18.0264 85.1351 18.3234C85.228 18.2637 85.325 18.1592 85.4389 18.135C86.4786 17.9137 86.6103 17.2083 86.5899 16.2738C86.5358 13.7928 86.5719 11.3099 86.5713 8.82766C86.5712 8.04998 86.4511 7.89101 85.6955 7.65766C85.1139 7.47802 84.9457 7.06507 85.0688 5.99018C86.9796 5.99018 88.9033 5.99018 90.8675 5.99018C90.8887 6.248 90.9136 6.54989 90.9463 6.94749C91.3012 6.73778 91.5871 6.56097 91.8801 6.39702C93.7344 5.35947 95.6587 5.36957 97.5519 6.18905C98.662 6.66953 99.2209 7.72265 99.3137 8.88266C99.446 10.5366 99.4195 12.2038 99.4461 13.8656C99.4617 14.8472 99.4431 15.8292 99.4513 16.8109C99.4557 17.3457 99.6239 17.7499 100.201 17.955C100.974 18.2294 101.093 18.5388 100.945 19.5254C98.5192 19.5254 96.0876 19.5254 93.6572 19.5254C93.4 18.5945 93.5053 18.3241 94.3673 17.9444C94.9396 17.6923 94.989 17.1766 94.9951 16.6996C95.0236 14.4586 95.0217 12.2169 94.9956 9.9758C94.9906 9.54475 94.8585 9.10654 94.7323 8.68753C94.5335 8.02716 93.8734 7.6003 93.2047 7.67854C92.9344 7.71017 92.6665 7.78518 92.405 7.86509C91.2891 8.20609 91.123 8.43158 91.123 9.56619C91.123 11.9558 91.1337 14.3454 91.1157 16.7349C91.111 17.351 91.2958 17.7336 91.9281 17.9288C92.6971 18.1663 92.8709 18.5737 92.7309 19.5262C90.1938 19.5262 87.6508 19.5262 85.0664 19.5262C85.0369 19.3369 85.0071 19.1457 84.9774 18.9543C84.4019 19.2836 83.8425 19.6037 83.2653 19.9577C82.7226 19.9968 82.1976 20.002 81.5983 19.969C80.5136 19.6357 79.895 18.8858 79.3923 18.0067C78.4294 19.008 77.969 19.4385 76.1424 19.9916C75.3223 19.9968 74.5022 20.002 73.6303 19.9993ZM78.5787 13.5081C78.5787 13.0927 78.5787 12.6773 78.5787 12.1679C78.1903 12.2839 77.9092 12.351 77.6403 12.451C75.8634 13.1123 74.6177 14.3962 75.1552 16.5636C75.4557 17.7756 76.1863 18.5521 77.4498 17.7698C77.748 17.5852 77.9467 17.1958 78.1219 16.8639C78.6611 15.8427 78.5938 14.7243 78.5787 13.5081Z" fill="white"/>
<path d="M34.5527 19.9994C34.2284 19.8953 33.9544 19.8027 33.6834 19.7022C32.2203 19.1599 31.7023 17.9228 31.4091 16.5437C31.3144 16.0984 31.2954 15.6308 31.2927 15.1731C31.2809 13.1356 31.2881 11.0979 31.2874 9.06025C31.2871 8.09856 31.012 7.76276 30.0398 7.51078C29.9514 8.00813 29.9706 8.56088 29.7534 8.99513C29.1642 10.1735 27.7983 10.6388 26.5988 9.48279C25.9468 8.8545 25.5209 8.96598 25.0739 9.75522C23.793 12.017 23.6071 14.4736 23.7456 16.9904C23.7707 17.4469 23.9984 17.7507 24.476 17.9115C25.5151 18.2613 25.5967 18.4272 25.4691 19.5201C22.9321 19.5201 20.3894 19.5201 17.8428 19.5201C17.568 18.6682 17.6617 18.3254 18.458 18.0076C19.1356 17.7372 19.2915 17.233 19.294 16.62C19.304 14.1008 19.3108 11.5814 19.2882 9.06232C19.2834 8.51486 19.2006 7.97309 18.54 7.72424C17.6586 7.3922 17.5126 7.04699 17.7167 5.97863C19.5718 5.97863 21.4446 5.97863 23.3971 5.97863C23.3971 7.12112 23.3971 8.3092 23.3971 9.49728C23.4389 9.5056 23.4806 9.51392 23.5223 9.52223C23.8579 8.93046 24.1564 8.31313 24.5399 7.75433C24.9019 7.22686 25.2868 6.67744 25.7785 6.28433C27.0319 5.28234 28.5429 5.45143 29.7771 6.69422C29.8182 6.46127 29.8506 6.27785 29.9011 5.99205C31.8045 5.99205 33.727 5.99205 35.7281 5.99205C35.7281 6.14206 35.7281 6.33867 35.7281 6.53527C35.7281 9.31386 35.7098 12.0927 35.7416 14.8709C35.749 15.5222 35.8609 16.19 36.0389 16.8177C36.3358 17.8644 37.1796 18.2283 38.1947 17.8202C38.4678 17.7104 38.7693 17.6102 38.9778 17.4184C39.1712 17.2404 39.3713 16.9473 39.374 16.7028C39.4022 14.1282 39.393 11.5533 39.3903 8.97847C39.3896 8.36291 39.2074 7.90325 38.5413 7.66551C37.7642 7.38817 37.6977 7.12005 37.924 5.97786C39.8524 5.97786 41.7991 5.97786 43.832 5.97786C43.832 6.15153 43.832 6.3656 43.832 6.57968C43.832 9.87694 43.8414 13.1742 43.8248 16.4714C43.821 17.2253 43.9928 17.8064 44.7947 18.0465C45.5675 18.2779 45.3843 18.9073 45.3628 19.5158C43.4256 19.5158 41.4984 19.5158 39.5364 19.5158C39.5161 19.2523 39.4966 18.9996 39.4687 18.6367C38.4993 19.3368 37.5299 19.9113 36.3201 19.9604C35.7282 19.9969 35.1663 20.002 34.5527 19.9994Z" fill="white"/>
<path d="M11.0376 0.00783119C11.8698 0.266421 12.6648 0.479326 13.4271 0.776252C14.7833 1.30444 15.5658 2.26399 15.7727 3.76673C15.946 5.02553 15.7836 6.17317 15.0325 7.16392C14.3616 8.04878 13.3657 8.5287 12.3304 8.89794C12.0905 8.9835 11.8505 9.06854 11.6296 9.14704C12.4051 9.3904 13.2096 9.57361 13.9572 9.89114C15.8216 10.6829 16.8979 11.8566 16.8691 14.0421C16.8537 15.21 16.7191 16.3046 16.0062 17.2796C15.4362 18.0591 14.6223 18.4874 13.7882 18.8594C12.6193 19.3807 11.3782 19.5829 10.0876 19.5731C6.75917 19.5476 3.43038 19.5654 0.0508507 19.5674C-0.00528105 19.1553 -0.0105484 18.7416 0.0319268 18.2744C0.384001 18.0922 0.714985 18.003 0.98362 17.8213C1.17371 17.6928 1.37167 17.4534 1.40504 17.2385C1.49492 16.6594 1.52993 16.0669 1.53136 15.4797C1.54104 11.4975 1.53558 7.51524 1.53704 3.53303C1.53738 2.59205 1.45087 1.70976 0.293748 1.46657C0.191274 1.44503 0.0977048 1.381 0 1.33671C0 0.914183 0 0.49166 0 0C3.66439 0 7.32506 -8.86276e-08 11.0376 0.00783119ZM6.08806 17.4828C6.06782 17.7368 6.11751 17.9163 6.43814 17.8988C7.28222 17.853 8.14026 17.9015 8.96853 17.765C10.2747 17.5498 11.4944 17.1272 11.7976 15.573C11.8536 15.2862 11.9222 14.9985 11.9404 14.7084C12.0086 13.6266 11.9492 12.5465 11.2336 11.6699C9.86743 9.99635 7.98641 10.1592 6.08793 10.2705C6.08793 12.678 6.08793 15.0274 6.08806 17.4828ZM10.5937 3.34938C10.2734 2.67015 9.79031 2.07517 9.07342 1.91285C8.12563 1.69826 7.13394 1.67808 6.13721 1.57178C6.13721 4.00134 6.13721 6.26266 6.13721 8.68109C7.07045 8.52183 7.959 8.46404 8.78003 8.19757C9.3411 8.01547 9.94695 7.64476 10.2894 7.17894C11.1282 6.03801 10.9914 4.72302 10.5937 3.34938Z" fill="white"/>
<path d="M52.2689 11.56C52.2689 13.3011 52.2678 14.9866 52.2693 16.6721C52.27 17.5135 52.4057 17.709 53.1973 18.0304C53.7362 18.2492 53.8112 18.4861 53.6523 19.525C51.2275 19.525 48.7964 19.525 46.3662 19.525C46.1048 18.5824 46.2117 18.2729 47.0882 17.9455C47.8003 17.6796 47.8032 17.0723 47.8114 16.5383C47.8493 14.0755 47.8449 11.6116 47.8174 9.14846C47.8097 8.45978 47.6819 7.80982 46.8141 7.58634C45.9746 7.37016 46.3663 6.63354 46.2465 5.99189C48.1986 5.99189 50.0847 5.99189 52.0171 5.99189C52.0355 6.28338 52.0569 6.62221 52.0846 7.05975C52.2732 6.9529 52.3953 6.89597 52.5043 6.82007C54.3731 5.51876 56.3445 5.20964 58.4231 6.26118C58.7884 6.44594 59.1104 6.76519 59.3753 7.08618C59.6397 7.4066 59.8166 7.37783 60.0886 7.12513C61.5358 5.78086 63.2476 5.38626 65.1506 5.7831C66.8189 6.131 68.2033 7.79084 68.158 9.58535C68.099 11.9176 68.1454 14.2525 68.1424 16.5863C68.1416 17.2147 68.2771 17.711 68.954 17.9893C69.7742 18.3265 69.7714 18.4086 69.6568 19.517C67.2173 19.517 64.7725 19.517 62.331 19.517C62.1336 18.4967 62.1994 18.3303 63.0503 17.9491C63.579 17.7122 63.6917 17.2524 63.6953 16.7691C63.7123 14.5281 63.7181 12.2866 63.6908 10.0458C63.6849 9.55817 63.5576 9.06419 63.4322 8.5874C63.1475 7.50567 61.6481 7.49211 60.8542 8.13513C60.4463 8.46558 60.241 8.85713 60.2483 9.42416C60.2797 11.8687 60.2695 14.3138 60.2563 16.7587C60.2529 17.3707 60.4229 17.7822 61.0446 18.0418C61.661 18.299 61.6267 18.9104 61.5634 19.5215C59.1941 19.5215 56.8363 19.5215 54.4758 19.5215C54.2057 18.6626 54.3227 18.3671 55.0755 17.9858C55.5008 17.7704 55.7263 17.4656 55.7212 16.9385C55.6968 14.4197 55.713 11.9006 55.7088 9.3816C55.7072 8.4024 55.3831 7.93447 54.5826 7.71594C53.5454 7.4328 52.2693 8.38833 52.2689 9.44857C52.2687 10.1339 52.2689 10.8191 52.2689 11.56Z" fill="white"/>
</svg>
