<svg width="118" height="20" viewBox="0 0 118 20" fill="none" xmlns="http://www.w3.org/2000/svg">
<g clip-path="url(#clip0_1659_51)">
<path fill-rule="evenodd" clip-rule="evenodd" d="M49.442 11.0588C51.4873 11.8039 52.7067 12.2353 52.7067 14.1961C52.7067 16 51.448 17.1373 49.4027 17.1373C47.3967 17.1373 45.9413 15.9216 45.9413 13.9216V13.6471H43.0307C43.0307 17.5686 45.8233 19.8039 49.4027 19.8039C53.0607 19.8039 55.6173 17.1373 55.6173 14.0784C55.6173 12.5098 55.106 11.5294 54.28 10.6275C53.454 9.76471 52.4313 9.17647 50.7007 8.54902L49.5993 8.11765C47.1607 7.21569 46.4133 6.50981 46.4133 5.13726C46.4133 3.56863 47.554 2.58824 49.3633 2.58824C51.1333 2.58824 52.392 3.56863 52.392 5.33333V5.68628H55.3027C55.3027 2.15686 53.0607 -0.0784302 49.3633 -0.0784302C45.3513 -0.0784302 43.4633 2.70588 43.4633 5.17647C43.4633 6.54902 43.896 7.52941 44.604 8.43137C45.312 9.29412 46.3347 9.84314 47.79 10.3922L49.1667 10.9804C49.2453 11.0196 49.3633 11.0196 49.442 11.0588ZM17.1887 0.274511L10.2267 11.4902L3.304 0.274511H0V19.5686H2.75333V4.35294L8.92867 14.3529H11.4853L17.7 4.35294V19.5686H20.4533V0.274511H17.1887ZM36.934 11.4902V0.274511H39.7267V11.451C39.7267 16.7059 36.698 19.8431 32.1747 19.8431C27.6513 19.8431 24.6227 16.7451 24.6227 11.451V0.274511H27.4153V11.4902C27.4153 14.9804 29.2247 17.1373 32.1747 17.1373C35.1247 17.1373 36.934 14.9804 36.934 11.4902ZM59.1573 19.5686H61.9893V0.274511H59.1573V19.5686ZM68.9907 19.5686V4.62745L79.06 19.5686H82.1673V0.274511H79.414V15.2941L69.3053 0.274511H66.2373V19.5686H68.9907ZM95.108 14.2353C95.108 12.2745 93.928 11.8431 91.8433 11.098C91.7647 11.0588 91.6467 11.0196 91.568 10.9804L90.2307 10.4706C88.7753 9.92157 87.792 9.41177 87.0447 8.50981C86.3367 7.64706 85.904 6.62745 85.904 5.2549C85.904 2.78431 87.7527 1.19922e-06 91.804 1.19922e-06C95.5013 1.19922e-06 97.7433 2.2353 97.7433 5.76471H94.7933V5.41177C94.7933 3.64706 93.5347 2.66667 91.7647 2.66667C89.9553 2.66667 88.8147 3.64706 88.8147 5.21569C88.8147 6.58824 89.6013 7.29412 92.0007 8.19608L93.102 8.62745C94.8327 9.2549 95.816 9.80392 96.6813 10.7059C97.5073 11.5686 98.0187 12.5882 98.0187 14.1569C98.0187 17.2157 95.462 19.8824 91.804 19.8824C88.2247 19.8824 85.432 17.6078 85.432 13.7255H88.3427V14C88.3427 16 89.798 17.2157 91.804 17.2157C93.8493 17.1765 95.108 16 95.108 14.2353ZM112.965 14.1961H104.351L102.188 19.5686H99.356L107.183 0.274511H110.212L118 19.5686H115.168L112.965 14.1961ZM108.678 3.56863L105.492 11.451H111.903L108.678 3.56863Z" fill="white"/>
</g>
<defs>
<clipPath id="clip0_1659_51">
<rect width="118" height="20" fill="white"/>
</clipPath>
</defs>
</svg>
