<svg width="102" height="20" viewBox="0 0 102 20" fill="none" xmlns="http://www.w3.org/2000/svg">
<path d="M101.466 19.9875C100.409 19.9875 99.4045 19.9733 98.4003 19.9955C98.0674 20.0029 97.8642 19.9031 97.6612 19.6306C94.7084 15.6646 91.7424 11.7086 88.7793 7.75038C88.6675 7.60105 88.553 7.45374 88.3698 7.21389C88.3698 11.5284 88.3698 15.7285 88.3698 19.958C86.928 19.958 85.527 19.958 84.0983 19.958C84.0983 13.3259 84.0983 6.69592 84.0983 0.0145564C85.4117 0.0145564 86.7108 0.00130874 88.0088 0.032113C88.1628 0.0357736 88.3397 0.25865 88.458 0.416229C91.4274 4.36976 94.3902 8.32821 97.3545 12.2855C97.4651 12.4332 97.5793 12.5783 97.7564 12.8086C97.7564 8.49292 97.7564 4.28949 97.7564 0.0501074C99.1841 0.0501074 100.581 0.0501074 102 0.0501074C102 6.67341 102 13.2878 102 19.9875C101.848 19.9875 101.683 19.9875 101.466 19.9875Z" fill="white"/>
<path d="M4.03718e-07 17.5439C-1.94632e-08 11.6867 1.40963e-10 5.88253 1.40963e-10 0.0427586C0.178737 0.0333691 0.331704 0.0183933 0.484679 0.0183188C3.2347 0.0169408 5.98614 -0.0341923 8.7341 0.041478C9.91736 0.0740655 11.1319 0.23867 12.2651 0.572794C14.9857 1.37493 16.5456 3.46483 16.7171 6.31226C16.7922 7.55907 16.6672 8.78235 16.225 9.96382C15.6948 11.3804 14.7704 12.4491 13.4615 13.1892C13.325 13.2664 13.1888 13.344 13.0344 13.4317C14.4274 15.5997 15.8069 17.7466 17.2259 19.9551C17.0306 19.969 16.901 19.9861 16.7714 19.9863C15.3611 19.9882 13.9506 20.0002 12.5409 19.9727C12.3501 19.9689 12.0818 19.8101 11.9871 19.644C11.0522 18.0041 10.139 16.3516 9.23937 14.6918C9.08435 14.4058 8.91434 14.2932 8.5872 14.2975C7.23081 14.3156 5.87405 14.3051 4.47322 14.3051C4.47322 16.1952 4.47322 18.0642 4.47322 19.9601C2.97499 19.9601 1.5207 19.9601 8.07295e-07 19.9601C8.07295e-07 19.174 8.26899e-07 18.3855 4.03718e-07 17.5439ZM6.73584 3.73603C5.9858 3.73603 5.23576 3.73603 4.49174 3.73603C4.49174 6.03512 4.49174 8.27072 4.49174 10.5321C4.97738 10.5321 5.43287 10.5412 5.88789 10.5304C7.18831 10.4995 8.49946 10.5536 9.78614 10.4016C11.468 10.2028 12.3991 9.02544 12.4761 7.26089C12.5531 5.49715 11.7278 4.26513 10.0421 3.93558C9.0018 3.73221 7.9102 3.79354 6.73584 3.73603Z" fill="white"/>
<path d="M46.8851 0.0172875C48.7346 0.0494244 50.5359 0.0142755 52.3257 0.141708C53.2385 0.206701 54.1732 0.458992 55.024 0.808351C57.4546 1.80636 58.6378 3.74135 58.8217 6.32284C58.9105 7.56865 58.7709 8.7927 58.3285 9.97373C57.8045 11.3722 56.8882 12.4271 55.6064 13.1713C55.4849 13.2418 55.359 13.3044 55.2374 13.3747C55.2082 13.3915 55.1882 13.4245 55.1571 13.4572C56.536 15.6031 57.9159 17.7507 59.3532 19.9876C58.3178 19.9876 57.3764 19.9876 56.435 19.9876C55.8532 19.9876 55.2704 19.9661 54.6902 19.9958C54.3569 20.0129 54.1988 19.8821 54.0451 19.5984C53.1541 17.9541 52.2465 16.3187 51.3249 14.6915C51.2304 14.5248 51.0083 14.3255 50.8417 14.322C49.4345 14.2926 48.0265 14.3053 46.5735 14.3053C46.5735 16.2039 46.5735 18.0723 46.5735 19.9638C45.0737 19.9638 43.6193 19.9638 42.1356 19.9638C42.1356 13.3265 42.1356 6.69906 42.1356 0.0172875C43.7053 0.0172875 45.2688 0.0172875 46.8851 0.0172875ZM54.4801 8.08657C54.4941 7.98141 54.5077 7.87619 54.5223 7.7711C54.8377 5.49825 53.8375 4.05051 51.5625 3.82941C49.9278 3.67054 48.2654 3.79849 46.5914 3.79849C46.5914 6.01496 46.5914 8.25153 46.5914 10.5028C48.2089 10.5028 49.811 10.5753 51.4035 10.4816C52.8742 10.3951 54.0422 9.74468 54.4801 8.08657Z" fill="white"/>
<path d="M76.4997 6.92653C78.3438 11.2792 80.175 15.5933 82.0403 19.9877C81.7187 19.9877 81.449 19.9877 81.1793 19.9877C80.0691 19.9877 78.9582 19.9647 77.8491 19.9989C77.3997 20.0127 77.1697 19.9047 77.0078 19.4486C76.6544 18.4529 76.2316 17.4811 75.8091 16.5118C75.7439 16.3622 75.531 16.1786 75.3853 16.1777C72.4431 16.1581 69.5007 16.163 66.5118 16.163C66.0468 17.2951 65.5673 18.4251 65.1228 19.5689C65.0041 19.8746 64.8719 20.0019 64.5288 19.9965C63.155 19.975 61.7806 19.9877 60.3178 19.9877C63.2003 13.3058 66.0637 6.66861 68.9345 0.0139913C70.3934 0.0139913 71.8376 0.00192047 73.281 0.0315187C73.4358 0.0346928 73.6547 0.250336 73.7275 0.41829C74.6597 2.56948 75.5706 4.72996 76.4997 6.92653ZM69.726 8.23424C69.1532 9.65146 68.5804 11.0687 67.9904 12.5283C70.0917 12.5283 72.1255 12.5283 74.2242 12.5283C73.1982 9.96021 72.1851 7.42456 71.1242 4.76917C70.6324 5.97969 70.1904 7.06765 69.726 8.23424Z" fill="white"/>
<path d="M18.308 19.7685C21.0729 13.3515 23.8299 6.97679 26.5636 0.591959C26.7619 0.128594 26.9976 -0.0147284 27.486 0.00117153C28.683 0.0401365 29.8824 0.00139205 31.0801 0.0279555C31.2516 0.0317587 31.5107 0.184821 31.575 0.335279C34.3458 6.81902 37.0992 13.3103 39.8533 19.8012C39.8724 19.8463 39.8712 19.9 39.8858 19.9876C38.3759 19.9876 36.8829 19.9958 35.3903 19.9731C35.2593 19.9712 35.0716 19.7921 35.0114 19.6516C34.5673 18.6148 34.1405 17.5703 33.7282 16.5202C33.6225 16.251 33.4896 16.1535 33.1904 16.1549C30.3886 16.1686 27.5867 16.1703 24.785 16.1533C24.4518 16.1513 24.3398 16.2897 24.2321 16.5621C23.785 17.6932 23.3175 18.8162 22.8399 19.9851C21.3543 19.9851 19.8619 19.986 18.3696 19.9778C18.3442 19.9776 18.3195 19.8672 18.308 19.7685ZM28.8981 5.05324C27.8984 7.53325 26.8987 10.0133 25.8849 12.5284C27.9877 12.5284 30.0217 12.5284 32.1187 12.5284C31.0961 9.97106 30.0901 7.45457 29.0775 4.9407C29.0745 4.93303 28.9778 4.96338 28.8981 5.05324Z" fill="white"/>
</svg>
