<svg width="178" height="20" viewBox="0 0 178 20" fill="none" xmlns="http://www.w3.org/2000/svg">
<path d="M173.462 15.9036C170.309 15.9036 168.361 13.6747 168.361 10.3213C168.361 6.96787 170.329 4.63855 173.301 4.63855C175.59 4.63855 178 6.04418 178 10.0803V10.8032H170.088C170.168 13.1124 171.514 14.3775 173.462 14.3775C174.767 14.3775 175.59 13.8153 175.992 13.1325H177.839C177.317 14.7791 175.711 15.9036 173.462 15.9036ZM172.438 3.29317L174.164 0H176.153L173.924 3.29317H172.438ZM170.108 9.33735H176.253C176.253 7.51004 175.088 6.16466 173.301 6.16466C171.413 6.16466 170.208 7.6506 170.108 9.33735Z" fill="white"/>
<path d="M159.043 9.13655V15.6827H157.316V1.14458H159.043V6.48594H159.184C159.686 5.36145 160.67 4.63855 162.397 4.63855C164.626 4.63855 166.112 5.96386 166.112 8.75502V15.6827H164.385V8.8755C164.385 7.16867 163.441 6.18474 161.875 6.18474C160.248 6.18474 159.043 7.249 159.043 9.13655Z" fill="white"/>
<path d="M150.89 15.9036C147.798 15.9036 145.91 13.5542 145.91 10.2811C145.91 6.96787 147.878 4.63855 150.85 4.63855C153.18 4.63855 154.907 6.00402 155.188 8.07229H153.461C153.22 7.06827 152.336 6.16466 150.89 6.16466C148.942 6.16466 147.637 7.77108 147.637 10.2209C147.637 12.751 148.902 14.3574 150.89 14.3574C152.176 14.3574 153.16 13.6747 153.461 12.4699H155.188C154.907 14.4177 153.32 15.9036 150.89 15.9036Z" fill="white"/>
<path d="M139.605 15.6827V4.77912H141.271V6.44578H141.392C141.794 5.34137 142.918 4.59839 144.203 4.59839C144.464 4.59839 144.906 4.61847 145.107 4.63855V6.38554C144.986 6.34538 144.505 6.26506 144.063 6.26506C142.496 6.26506 141.332 7.3494 141.332 8.81526V15.6827H139.605Z" fill="white"/>
<path d="M128.078 12.5904C128.078 10.0803 130.287 9.51807 132.175 9.37751C132.867 9.32731 134.635 9.23695 135.127 9.21687V8.33333C135.127 6.94779 134.303 6.14458 132.657 6.14458C131.271 6.14458 130.448 6.78715 130.207 7.61044H128.399C128.62 5.86345 130.327 4.63855 132.737 4.63855C134.163 4.63855 136.833 5.06024 136.833 8.49398V15.6827H135.127V14.1968H135.046C134.685 14.9398 133.681 15.9438 131.793 15.9438C129.725 15.9438 128.078 14.7189 128.078 12.5904ZM129.805 12.6707C129.805 13.8153 130.769 14.3976 132.094 14.3976C134.042 14.3976 135.127 13.0924 135.127 11.7269V10.6225C134.615 10.6627 132.898 10.7932 132.375 10.8233C130.809 10.9237 129.805 11.4859 129.805 12.6707Z" fill="white"/>
<path d="M111.29 1.14458H113.459L118.359 13.1124H118.539L123.439 1.14458H125.608V15.6827H123.901V4.6988H123.761L119.242 15.6827H117.636L113.118 4.6988H112.997V15.6827H111.29V1.14458Z" fill="white"/>
<path d="M98.7193 15.6827V4.77912H100.386V6.44578H100.507C100.908 5.34137 102.033 4.59839 103.318 4.59839C103.579 4.59839 104.021 4.61847 104.222 4.63855V6.38554C104.101 6.34538 103.619 6.26506 103.177 6.26506C101.611 6.26506 100.446 7.3494 100.446 8.81526V15.6827H98.7193Z" fill="white"/>
<path d="M91.9319 15.9036C88.7791 15.9036 86.8312 13.6747 86.8312 10.3213C86.8312 6.96787 88.7992 4.63855 91.7712 4.63855C94.0605 4.63855 96.4702 6.04418 96.4702 10.0803V10.8032H88.5582C88.6385 13.1124 89.984 14.3775 91.9319 14.3775C93.2371 14.3775 94.0605 13.8153 94.4621 13.1325H96.3096C95.7875 14.7791 94.181 15.9036 91.9319 15.9036ZM88.5783 9.33735H94.7232C94.7232 7.51004 93.5584 6.16466 91.7712 6.16466C89.8836 6.16466 88.6787 7.6506 88.5783 9.33735Z" fill="white"/>
<path d="M79.863 20C77.2324 20 75.4452 18.8554 75.2444 16.8273H77.0517C77.2926 17.9317 78.3168 18.494 79.863 18.494C81.7306 18.494 82.8752 17.6908 82.8752 15.8835V13.6747H82.7347C82.3732 14.2771 81.6704 15.5221 79.5618 15.5221C76.9111 15.5221 74.9231 13.5141 74.9231 10.0803C74.9231 6.72691 76.8509 4.63855 79.5819 4.63855C81.6904 4.63855 82.3732 5.92369 82.7748 6.50602H82.9154V4.77912H84.6022V15.9839C84.6022 18.7952 82.5138 20 79.863 20ZM79.8028 13.9759C81.7908 13.9759 82.9154 12.5502 82.9154 10.1406C82.9154 7.81124 81.831 6.18474 79.8028 6.18474C77.7144 6.18474 76.6701 7.95181 76.6701 10.1406C76.6701 12.4096 77.7344 13.9759 79.8028 13.9759Z" fill="white"/>
<path d="M65.7259 9.13655V15.6827H63.9989V4.77912H65.6656V6.48594H65.8062C66.3283 5.38153 67.3324 4.63855 68.9991 4.63855C71.208 4.63855 72.674 5.98394 72.674 8.75502V15.6827H70.947V8.8755C70.947 7.18875 70.0232 6.18474 68.477 6.18474C66.8906 6.18474 65.7259 7.249 65.7259 9.13655Z" fill="white"/>
<path d="M59.5208 15.6827V4.77912H61.2477V15.6827H59.5208ZM60.3843 2.97189C59.7216 2.97189 59.1794 2.46988 59.1794 1.82731C59.1794 1.18474 59.7216 0.682731 60.3843 0.682731C61.0469 0.682731 61.6092 1.18474 61.6092 1.82731C61.6092 2.46988 61.0469 2.97189 60.3843 2.97189Z" fill="white"/>
<path d="M48.2954 15.6827V1.14458H57.0508V2.751H50.1027V7.61044H56.3881V9.19679H50.1027V15.6827H48.2954Z" fill="white"/>
<path d="M33.6762 4.77912L36.2466 9.21687L38.8371 4.77912H40.8251L37.3109 10.2209L40.8251 15.6827H38.8572L36.2466 11.4659L33.6762 15.6827H31.6882L35.1221 10.2209L31.6882 4.77912H33.6762Z" fill="white"/>
<path d="M23.1336 4.77912L25.704 9.21687L28.2944 4.77912H30.2825L26.7683 10.2209L30.2825 15.6827H28.3145L25.704 11.4659L23.1336 15.6827H21.1455L24.5794 10.2209L21.1455 4.77912H23.1336Z" fill="white"/>
<path d="M15.322 15.9036C12.1692 15.9036 10.2213 13.6747 10.2213 10.3213C10.2213 6.96787 12.1893 4.63855 15.1613 4.63855C17.4506 4.63855 19.8603 6.04418 19.8603 10.0803V10.8032H11.9483C12.0287 13.1124 13.3741 14.3775 15.322 14.3775C16.6273 14.3775 17.4506 13.8153 17.8522 13.1325H19.6997C19.1776 14.7791 17.5711 15.9036 15.322 15.9036ZM11.9684 9.33735H18.1133C18.1133 7.51004 16.9486 6.16466 15.1613 6.16466C13.2737 6.16466 12.0688 7.6506 11.9684 9.33735Z" fill="white"/>
<path d="M0 15.6827V1.14458H1.80731V14.0763H8.5546V15.6827H0Z" fill="white"/>
</svg>
