<svg width="58" height="20" viewBox="0 0 58 20" fill="none" xmlns="http://www.w3.org/2000/svg">
<path d="M38.7869 19.9869C35.0385 19.9867 31.3321 19.9949 27.6258 19.9833C23.0961 19.9692 19.1022 16.8735 17.9618 12.5122C16.4958 6.90626 20.1487 1.19089 25.8547 0.16283C31.5546 -0.864134 36.9918 3.07897 37.6126 8.82374C38.0634 12.9944 36.3723 16.2379 32.8611 18.5416C32.8149 18.5719 32.7646 18.596 32.7358 18.6699C34.7089 18.2149 36.6822 17.7608 38.655 17.3042C39.2216 17.1731 39.258 17.195 39.263 17.759C39.2682 18.3444 39.2592 18.9301 39.2696 19.5154C39.2751 19.8265 39.1695 20.0089 38.7869 19.9869ZM28.2319 2.82535C26.9921 2.73058 25.8102 2.94844 24.6711 3.44525C20.7553 5.15305 19.2447 10.206 21.537 13.8005C23.5042 16.8853 27.5082 18.0569 30.8104 16.4577C34.0944 14.8673 35.9219 10.8785 34.3127 7.19755C33.1795 4.60542 31.1429 3.15719 28.2319 2.82535Z" fill="white"/>
<path d="M6.53903 11.7868C5.40897 11.7864 4.32396 11.7964 3.23937 11.7795C2.88241 11.774 2.77086 11.9008 2.77493 12.2519C2.80186 14.5773 2.81082 16.9031 2.82744 19.2287C2.83139 19.7809 2.85535 19.8113 3.3865 19.689C6.55016 18.9606 9.71189 18.2239 12.8743 17.4901C13.2112 17.4119 13.5487 17.3364 13.8852 17.2563C14.165 17.1897 14.3205 17.2686 14.318 17.5827C14.3126 18.2432 14.3118 18.9039 14.3198 19.5645C14.3236 19.8727 14.1829 19.9958 13.8808 19.9911C13.3385 19.9827 12.796 19.989 12.2535 19.9896C9.30035 19.9928 6.34716 19.9973 3.39397 19.999C2.43216 19.9995 1.47021 19.9827 0.50861 19.9953C0.146391 20 -1.91189e-05 19.8848 0.000485802 19.5044C0.00855577 13.4237 0.00827995 7.34289 1.59909e-06 1.26213C-0.000499163 0.894264 0.116511 0.761833 0.493123 0.762597C4.92294 0.771593 9.35278 0.77143 13.7826 0.762108C14.1674 0.761297 14.3343 0.885667 14.3238 1.27845C14.3077 1.87857 14.3097 2.47976 14.3257 3.07991C14.3349 3.42431 14.1976 3.57697 13.8514 3.57221C13.3091 3.56474 12.7666 3.57474 12.2242 3.57315C9.22611 3.56437 6.22802 3.55727 3.22999 3.54043C2.90884 3.53863 2.75474 3.63281 2.77618 3.97599C2.86989 5.47575 2.73612 6.97604 2.77408 8.47688C2.78403 8.87002 2.89247 8.9809 3.28931 8.97878C6.48352 8.96175 9.67786 8.96746 12.8722 8.96679C13.5224 8.96665 13.5232 8.96775 13.5249 9.61426C13.5263 10.1698 13.506 10.7262 13.5325 11.2805C13.5517 11.6833 13.385 11.8006 13.0027 11.7983C10.8633 11.7851 8.72374 11.7888 6.53903 11.7868Z" fill="white"/>
<path d="M46.505 5.29519C46.5055 10.0053 46.5063 14.6703 46.5061 19.3353C46.5061 19.983 46.5016 19.9867 45.8512 19.9898C45.3394 19.9922 44.8275 19.9926 44.3157 19.9915C43.6858 19.9903 43.6773 19.9827 43.6775 19.372C43.6782 16.612 43.6814 13.852 43.6811 11.092C43.6807 7.85193 43.6777 4.61191 43.6761 1.37188C43.6758 0.773165 43.6792 0.769047 44.2772 0.767166C44.8342 0.765415 45.3926 0.790972 45.9477 0.758734C46.3961 0.732688 46.5184 0.917867 46.5126 1.33518C46.4945 2.63996 46.5054 3.94513 46.505 5.29519Z" fill="white"/>
<path d="M46.9847 19.7109C49.0549 19.2339 51.0906 18.7668 53.1257 18.2968C54.5746 17.9622 56.024 17.6298 57.4699 17.2827C57.8341 17.1953 58.0104 17.2592 57.9962 17.6749C57.9761 18.2594 57.973 18.8459 57.9986 19.43C58.0175 19.8636 57.8464 20.0019 57.4189 20C54.332 19.9858 51.2451 19.9903 48.1582 19.9889C47.6658 19.9887 47.1735 19.9888 46.682 19.9888C46.6547 19.7161 46.855 19.7834 46.9847 19.7109Z" fill="white"/>
</svg>
